<mxfile host="app.diagrams.net" modified="2024-03-11T16:57:45.858Z" agent="Mozilla/5.0 (Windows NT 10.0; Win64; x64) AppleWebKit/537.36 (KHTML, like Gecko) Chrome/122.0.0.0 Safari/537.36" etag="eGNLtgUGggptgXTk2fmj" version="24.0.4" type="device">
  <diagram name="Страница — 1" id="1QZaESrl1kdhL6LwLlE2">
    <mxGraphModel dx="420" dy="223" grid="1" gridSize="10" guides="1" tooltips="1" connect="1" arrows="1" fold="1" page="1" pageScale="1" pageWidth="1169" pageHeight="827" math="0" shadow="0">
      <root>
        <mxCell id="0" />
        <mxCell id="1" parent="0" />
        <mxCell id="rGSLrxqXsenCYDhWUrQ7-15" style="edgeStyle=orthogonalEdgeStyle;rounded=0;orthogonalLoop=1;jettySize=auto;html=1;entryX=0.5;entryY=0;entryDx=0;entryDy=0;" parent="1" source="rGSLrxqXsenCYDhWUrQ7-3" target="rGSLrxqXsenCYDhWUrQ7-4" edge="1">
          <mxGeometry relative="1" as="geometry">
            <Array as="points">
              <mxPoint x="505" y="180" />
            </Array>
          </mxGeometry>
        </mxCell>
        <mxCell id="rGSLrxqXsenCYDhWUrQ7-3" value="" style="ellipse;fillColor=strokeColor;html=1;" parent="1" vertex="1">
          <mxGeometry x="490" y="110" width="30" height="30" as="geometry" />
        </mxCell>
        <mxCell id="rGSLrxqXsenCYDhWUrQ7-17" style="edgeStyle=orthogonalEdgeStyle;rounded=0;orthogonalLoop=1;jettySize=auto;html=1;exitX=0.5;exitY=1;exitDx=0;exitDy=0;entryX=0.5;entryY=0;entryDx=0;entryDy=0;" parent="1" source="rGSLrxqXsenCYDhWUrQ7-4" target="rGSLrxqXsenCYDhWUrQ7-5" edge="1">
          <mxGeometry relative="1" as="geometry" />
        </mxCell>
        <mxCell id="rGSLrxqXsenCYDhWUrQ7-4" value="Запуск гри" style="rounded=1;whiteSpace=wrap;html=1;" parent="1" vertex="1">
          <mxGeometry x="447.5" y="190" width="115" height="50" as="geometry" />
        </mxCell>
        <mxCell id="rGSLrxqXsenCYDhWUrQ7-18" style="edgeStyle=orthogonalEdgeStyle;rounded=0;orthogonalLoop=1;jettySize=auto;html=1;exitX=0;exitY=0.5;exitDx=0;exitDy=0;entryX=0.5;entryY=0;entryDx=0;entryDy=0;" parent="1" source="rGSLrxqXsenCYDhWUrQ7-5" target="rGSLrxqXsenCYDhWUrQ7-7" edge="1">
          <mxGeometry relative="1" as="geometry">
            <Array as="points">
              <mxPoint x="403" y="287" />
              <mxPoint x="403" y="412" />
              <mxPoint x="510" y="412" />
            </Array>
          </mxGeometry>
        </mxCell>
        <mxCell id="rGSLrxqXsenCYDhWUrQ7-22" value="" style="edgeStyle=orthogonalEdgeStyle;rounded=0;orthogonalLoop=1;jettySize=auto;html=1;" parent="1" source="rGSLrxqXsenCYDhWUrQ7-5" target="rGSLrxqXsenCYDhWUrQ7-6" edge="1">
          <mxGeometry relative="1" as="geometry">
            <Array as="points">
              <mxPoint x="505" y="330" />
              <mxPoint x="505" y="330" />
            </Array>
          </mxGeometry>
        </mxCell>
        <mxCell id="rGSLrxqXsenCYDhWUrQ7-5" value="Прочитати інструкцію?" style="shape=hexagon;perimeter=hexagonPerimeter2;whiteSpace=wrap;html=1;fixedSize=1;" parent="1" vertex="1">
          <mxGeometry x="422.5" y="272" width="165" height="30" as="geometry" />
        </mxCell>
        <mxCell id="rGSLrxqXsenCYDhWUrQ7-23" style="edgeStyle=orthogonalEdgeStyle;rounded=0;orthogonalLoop=1;jettySize=auto;html=1;exitX=0.5;exitY=1;exitDx=0;exitDy=0;" parent="1" source="rGSLrxqXsenCYDhWUrQ7-6" edge="1">
          <mxGeometry relative="1" as="geometry">
            <Array as="points">
              <mxPoint x="515" y="402" />
              <mxPoint x="630" y="402" />
              <mxPoint x="630" y="287" />
            </Array>
            <mxPoint x="505" y="250" as="targetPoint" />
          </mxGeometry>
        </mxCell>
        <mxCell id="rGSLrxqXsenCYDhWUrQ7-6" value="Читання інструкції" style="rounded=1;whiteSpace=wrap;html=1;" parent="1" vertex="1">
          <mxGeometry x="452.5" y="332" width="115" height="50" as="geometry" />
        </mxCell>
        <mxCell id="rGSLrxqXsenCYDhWUrQ7-44" style="edgeStyle=orthogonalEdgeStyle;rounded=0;orthogonalLoop=1;jettySize=auto;html=1;exitX=0.5;exitY=1;exitDx=0;exitDy=0;entryX=0.5;entryY=0;entryDx=0;entryDy=0;" parent="1" source="rGSLrxqXsenCYDhWUrQ7-7" target="rGSLrxqXsenCYDhWUrQ7-8" edge="1">
          <mxGeometry relative="1" as="geometry" />
        </mxCell>
        <mxCell id="rGSLrxqXsenCYDhWUrQ7-7" value="Почати гру" style="rounded=1;whiteSpace=wrap;html=1;" parent="1" vertex="1">
          <mxGeometry x="452.5" y="442" width="115" height="50" as="geometry" />
        </mxCell>
        <mxCell id="rGSLrxqXsenCYDhWUrQ7-45" value="" style="edgeStyle=orthogonalEdgeStyle;rounded=0;orthogonalLoop=1;jettySize=auto;html=1;" parent="1" source="rGSLrxqXsenCYDhWUrQ7-8" target="rGSLrxqXsenCYDhWUrQ7-9" edge="1">
          <mxGeometry relative="1" as="geometry" />
        </mxCell>
        <mxCell id="rGSLrxqXsenCYDhWUrQ7-8" value="Спавн героя" style="rounded=1;whiteSpace=wrap;html=1;" parent="1" vertex="1">
          <mxGeometry x="452.5" y="520" width="115" height="50" as="geometry" />
        </mxCell>
        <mxCell id="rGSLrxqXsenCYDhWUrQ7-27" style="edgeStyle=orthogonalEdgeStyle;rounded=0;orthogonalLoop=1;jettySize=auto;html=1;entryX=0.5;entryY=0;entryDx=0;entryDy=0;" parent="1" source="rGSLrxqXsenCYDhWUrQ7-9" target="rGSLrxqXsenCYDhWUrQ7-10" edge="1">
          <mxGeometry relative="1" as="geometry">
            <Array as="points">
              <mxPoint x="510" y="690" />
            </Array>
          </mxGeometry>
        </mxCell>
        <mxCell id="rGSLrxqXsenCYDhWUrQ7-9" value="Проходження гри" style="rounded=1;whiteSpace=wrap;html=1;" parent="1" vertex="1">
          <mxGeometry x="452.5" y="600" width="115" height="50" as="geometry" />
        </mxCell>
        <mxCell id="rGSLrxqXsenCYDhWUrQ7-39" style="edgeStyle=orthogonalEdgeStyle;rounded=0;orthogonalLoop=1;jettySize=auto;html=1;exitX=0;exitY=0.5;exitDx=0;exitDy=0;entryX=0.5;entryY=0;entryDx=0;entryDy=0;" parent="1" source="rGSLrxqXsenCYDhWUrQ7-10" target="rGSLrxqXsenCYDhWUrQ7-32" edge="1">
          <mxGeometry relative="1" as="geometry" />
        </mxCell>
        <mxCell id="rGSLrxqXsenCYDhWUrQ7-10" value="Пройшов рівень?" style="shape=hexagon;perimeter=hexagonPerimeter2;whiteSpace=wrap;html=1;fixedSize=1;" parent="1" vertex="1">
          <mxGeometry x="432.5" y="690" width="155" height="30" as="geometry" />
        </mxCell>
        <mxCell id="rGSLrxqXsenCYDhWUrQ7-42" style="edgeStyle=orthogonalEdgeStyle;rounded=0;orthogonalLoop=1;jettySize=auto;html=1;" parent="1" source="rGSLrxqXsenCYDhWUrQ7-11" edge="1">
          <mxGeometry relative="1" as="geometry">
            <mxPoint x="510" y="670" as="targetPoint" />
            <Array as="points">
              <mxPoint x="300" y="830" />
              <mxPoint x="300" y="670" />
            </Array>
          </mxGeometry>
        </mxCell>
        <mxCell id="rGSLrxqXsenCYDhWUrQ7-11" value="Перехід до наступного рівня" style="rounded=1;whiteSpace=wrap;html=1;" parent="1" vertex="1">
          <mxGeometry x="310" y="810" width="170" height="40" as="geometry" />
        </mxCell>
        <mxCell id="rGSLrxqXsenCYDhWUrQ7-56" value="" style="edgeStyle=orthogonalEdgeStyle;rounded=0;orthogonalLoop=1;jettySize=auto;html=1;" parent="1" source="rGSLrxqXsenCYDhWUrQ7-12" target="rGSLrxqXsenCYDhWUrQ7-55" edge="1">
          <mxGeometry relative="1" as="geometry" />
        </mxCell>
        <mxCell id="rGSLrxqXsenCYDhWUrQ7-12" value="Пройшов гру" style="rounded=1;whiteSpace=wrap;html=1;" parent="1" vertex="1">
          <mxGeometry x="462.5" y="900" width="110" height="40" as="geometry" />
        </mxCell>
        <mxCell id="rGSLrxqXsenCYDhWUrQ7-13" value="" style="ellipse;html=1;shape=endState;fillColor=strokeColor;" parent="1" vertex="1">
          <mxGeometry x="502.5" y="1060" width="30" height="30" as="geometry" />
        </mxCell>
        <mxCell id="rGSLrxqXsenCYDhWUrQ7-19" value="Ні" style="text;html=1;align=center;verticalAlign=middle;resizable=0;points=[];autosize=1;strokeColor=none;fillColor=none;" parent="1" vertex="1">
          <mxGeometry x="397.5" y="260" width="30" height="30" as="geometry" />
        </mxCell>
        <mxCell id="rGSLrxqXsenCYDhWUrQ7-20" value="Так" style="text;html=1;align=center;verticalAlign=middle;resizable=0;points=[];autosize=1;strokeColor=none;fillColor=none;" parent="1" vertex="1">
          <mxGeometry x="502.5" y="302" width="40" height="30" as="geometry" />
        </mxCell>
        <mxCell id="rGSLrxqXsenCYDhWUrQ7-29" value="Так" style="text;html=1;align=center;verticalAlign=middle;resizable=0;points=[];autosize=1;strokeColor=none;fillColor=none;" parent="1" vertex="1">
          <mxGeometry x="397.5" y="680" width="40" height="30" as="geometry" />
        </mxCell>
        <mxCell id="rGSLrxqXsenCYDhWUrQ7-30" value="Ні" style="text;html=1;align=center;verticalAlign=middle;resizable=0;points=[];autosize=1;strokeColor=none;fillColor=none;" parent="1" vertex="1">
          <mxGeometry x="585" y="680" width="30" height="30" as="geometry" />
        </mxCell>
        <mxCell id="rGSLrxqXsenCYDhWUrQ7-49" style="edgeStyle=orthogonalEdgeStyle;rounded=0;orthogonalLoop=1;jettySize=auto;html=1;exitX=0;exitY=0.5;exitDx=0;exitDy=0;entryX=1;entryY=0.5;entryDx=0;entryDy=0;" parent="1" source="rGSLrxqXsenCYDhWUrQ7-31" target="rGSLrxqXsenCYDhWUrQ7-55" edge="1">
          <mxGeometry relative="1" as="geometry">
            <mxPoint x="578.75" y="810" as="targetPoint" />
            <Array as="points">
              <mxPoint x="590" y="845" />
              <mxPoint x="590" y="1000" />
            </Array>
          </mxGeometry>
        </mxCell>
        <mxCell id="rGSLrxqXsenCYDhWUrQ7-51" style="edgeStyle=orthogonalEdgeStyle;rounded=0;orthogonalLoop=1;jettySize=auto;html=1;exitX=1;exitY=0.5;exitDx=0;exitDy=0;entryX=0.5;entryY=0;entryDx=0;entryDy=0;" parent="1" source="rGSLrxqXsenCYDhWUrQ7-31" target="rGSLrxqXsenCYDhWUrQ7-46" edge="1">
          <mxGeometry relative="1" as="geometry" />
        </mxCell>
        <mxCell id="rGSLrxqXsenCYDhWUrQ7-31" value="Почати нову гру?" style="shape=hexagon;perimeter=hexagonPerimeter2;whiteSpace=wrap;html=1;fixedSize=1;" parent="1" vertex="1">
          <mxGeometry x="600" y="830" width="180" height="30" as="geometry" />
        </mxCell>
        <mxCell id="rGSLrxqXsenCYDhWUrQ7-36" style="edgeStyle=orthogonalEdgeStyle;rounded=0;orthogonalLoop=1;jettySize=auto;html=1;exitX=0;exitY=0.5;exitDx=0;exitDy=0;entryX=0.5;entryY=0;entryDx=0;entryDy=0;" parent="1" source="rGSLrxqXsenCYDhWUrQ7-32" target="rGSLrxqXsenCYDhWUrQ7-12" edge="1">
          <mxGeometry relative="1" as="geometry">
            <mxPoint x="518" y="870" as="targetPoint" />
            <Array as="points">
              <mxPoint x="518" y="765" />
              <mxPoint x="518" y="840" />
              <mxPoint x="518" y="840" />
            </Array>
          </mxGeometry>
        </mxCell>
        <mxCell id="rGSLrxqXsenCYDhWUrQ7-37" value="" style="edgeStyle=orthogonalEdgeStyle;rounded=0;orthogonalLoop=1;jettySize=auto;html=1;" parent="1" source="rGSLrxqXsenCYDhWUrQ7-32" target="rGSLrxqXsenCYDhWUrQ7-11" edge="1">
          <mxGeometry relative="1" as="geometry" />
        </mxCell>
        <mxCell id="rGSLrxqXsenCYDhWUrQ7-32" value="Останній рівень?" style="shape=hexagon;perimeter=hexagonPerimeter2;whiteSpace=wrap;html=1;fixedSize=1;" parent="1" vertex="1">
          <mxGeometry x="305" y="750" width="180" height="30" as="geometry" />
        </mxCell>
        <mxCell id="rGSLrxqXsenCYDhWUrQ7-33" value="Так" style="text;html=1;align=center;verticalAlign=middle;resizable=0;points=[];autosize=1;strokeColor=none;fillColor=none;" parent="1" vertex="1">
          <mxGeometry x="480" y="740" width="40" height="30" as="geometry" />
        </mxCell>
        <mxCell id="rGSLrxqXsenCYDhWUrQ7-34" value="Ні" style="text;html=1;align=center;verticalAlign=middle;resizable=0;points=[];autosize=1;strokeColor=none;fillColor=none;" parent="1" vertex="1">
          <mxGeometry x="397.5" y="780" width="30" height="30" as="geometry" />
        </mxCell>
        <mxCell id="rGSLrxqXsenCYDhWUrQ7-48" style="edgeStyle=orthogonalEdgeStyle;rounded=0;orthogonalLoop=1;jettySize=auto;html=1;" parent="1" source="rGSLrxqXsenCYDhWUrQ7-46" edge="1">
          <mxGeometry relative="1" as="geometry">
            <mxPoint x="510" y="420" as="targetPoint" />
            <Array as="points">
              <mxPoint x="860" y="910" />
              <mxPoint x="860" y="420" />
            </Array>
          </mxGeometry>
        </mxCell>
        <mxCell id="rGSLrxqXsenCYDhWUrQ7-46" value="Рестарт гри" style="rounded=1;whiteSpace=wrap;html=1;" parent="1" vertex="1">
          <mxGeometry x="770" y="890" width="72.5" height="40" as="geometry" />
        </mxCell>
        <mxCell id="rGSLrxqXsenCYDhWUrQ7-52" value="Так" style="text;html=1;align=center;verticalAlign=middle;resizable=0;points=[];autosize=1;strokeColor=none;fillColor=none;" parent="1" vertex="1">
          <mxGeometry x="770" y="820" width="40" height="30" as="geometry" />
        </mxCell>
        <mxCell id="rGSLrxqXsenCYDhWUrQ7-53" value="Ні" style="text;html=1;align=center;verticalAlign=middle;resizable=0;points=[];autosize=1;strokeColor=none;fillColor=none;" parent="1" vertex="1">
          <mxGeometry x="572.5" y="820" width="30" height="30" as="geometry" />
        </mxCell>
        <mxCell id="rGSLrxqXsenCYDhWUrQ7-57" value="" style="edgeStyle=orthogonalEdgeStyle;rounded=0;orthogonalLoop=1;jettySize=auto;html=1;" parent="1" source="rGSLrxqXsenCYDhWUrQ7-55" target="rGSLrxqXsenCYDhWUrQ7-13" edge="1">
          <mxGeometry relative="1" as="geometry" />
        </mxCell>
        <mxCell id="rGSLrxqXsenCYDhWUrQ7-55" value="Вихід" style="rounded=1;whiteSpace=wrap;html=1;" parent="1" vertex="1">
          <mxGeometry x="481.25" y="980" width="72.5" height="40" as="geometry" />
        </mxCell>
        <mxCell id="rGSLrxqXsenCYDhWUrQ7-60" value="Боротьба з противниками,&lt;div&gt;пошук предметів&lt;/div&gt;" style="shape=note2;boundedLbl=1;whiteSpace=wrap;html=1;size=25;verticalAlign=middle;align=left;labelPosition=center;verticalLabelPosition=middle;fillColor=#fff2cc;strokeColor=#d6b656;" parent="1" vertex="1">
          <mxGeometry x="580" y="602.5" width="180" height="45" as="geometry" />
        </mxCell>
        <mxCell id="rGSLrxqXsenCYDhWUrQ7-62" value="Вбитий противником,&lt;div&gt;самостійно вийшов з гри&lt;/div&gt;" style="shape=note2;boundedLbl=1;whiteSpace=wrap;html=1;size=25;verticalAlign=middle;align=left;labelPosition=center;verticalLabelPosition=middle;fillColor=#fff2cc;strokeColor=#d6b656;" parent="1" vertex="1">
          <mxGeometry x="640" y="682.5" width="180" height="45" as="geometry" />
        </mxCell>
        <mxCell id="rGSLrxqXsenCYDhWUrQ7-63" style="edgeStyle=orthogonalEdgeStyle;rounded=0;orthogonalLoop=1;jettySize=auto;html=1;exitX=1;exitY=0.5;exitDx=0;exitDy=0;entryX=0.17;entryY=-0.056;entryDx=0;entryDy=0;entryPerimeter=0;" parent="1" source="rGSLrxqXsenCYDhWUrQ7-10" target="rGSLrxqXsenCYDhWUrQ7-31" edge="1">
          <mxGeometry relative="1" as="geometry" />
        </mxCell>
      </root>
    </mxGraphModel>
  </diagram>
</mxfile>
